<svg id="glipy_2" height="300" viewBox="0 0 64 64" width="300" xmlns="http://www.w3.org/2000/svg"
    data-name="glipy 2" version="1.1">
    <g transform="matrix(1,0,0,1,0,0)">
        <path
            d="m32 3a29 29 0 1 0 29 29 29.0337 29.0337 0 0 0 -29-29zm0 56a27 27 0 1 1 27-27 27.0278 27.0278 0 0 1 -27 27z"
            fill="#000000" data-original-color="#000000ff" stroke="none" />
        <path
            d="m34.68 38.59a8.91 8.91 0 1 0 17.82 0c-.47-11.81-17.36-11.82-17.82 0zm12.88 6.97h-7.94a3.00241 3.00241 0 0 1 -3-3v-7.94a2.996 2.996 0 0 1 3-3h7.94a3.00234 3.00234 0 0 1 3 3v7.94a3.00883 3.00883 0 0 1 -3 3z"
            fill="#000000" data-original-color="#000000ff" stroke="none" />
        <path
            d="m44.28 41.3a1.0124 1.0124 0 0 1 -1.27.1l-2.26-1.6-2.13 1.45v1.31a.99654.99654 0 0 0 1 1h7.94a1.003 1.003 0 0 0 1-1v-1.5l-2.09-1.84z"
            fill="#000000" data-original-color="#000000ff" stroke="none" />
        <path
            d="m47.56 33.62h-7.94a.99029.99029 0 0 0 -1 1v4.21l1.58-1.07a1.0099 1.0099 0 0 1 1.14.00995l2.15 1.52 2.26-2.14a.99921.99921 0 0 1 1.35-.03l1.46 1.28v-3.77995a.99654.99654 0 0 0 -1-1zm-1.15 2.63a1.00017 1.00017 0 0 1 -.01-2 1.00017 1.00017 0 0 1 .01 2z"
            fill="#000000" data-original-color="#000000ff" stroke="none" />
        <path
            d="m35.9 30.86a18.24959 18.24959 0 0 0 -6.73-1.27 18.45484 18.45484 0 0 0 -17.47 12.48 3.85946 3.85946 0 0 0 3.7 4.98h21.31c-4.94-3.73-5.38-11.97-.81-16.19z"
            fill="#000000" data-original-color="#000000ff" stroke="none" />
        <path d="m29.17 27.59c12.66-.53 12.66-18.57 0-19.09a9.545 9.545 0 0 0 0 19.09z"
            fill="#000000" data-original-color="#000000ff" stroke="none" />
    </g>
</svg>