<svg version="1.1" id="Layer_1" xmlns="http://www.w3.org/2000/svg" xmlns:xlink="http://www.w3.org/1999/xlink" x="0px" y="0px" viewBox="0 0 512 512" style="enable-background:new 0 0 512 512;" xml:space="preserve" width="300" height="300" xmlns:svgjs="http://svgjs.dev/svgjs"><g transform="matrix(1,0,0,1,0,0)"><g>
	<g>
		<path d="M333.466,385.431c-28.096,31.561-50.7,51.755-51.953,52.869L256,460.978L230.488,438.3&#10;&#9;&#9;&#9;c-1.253-1.114-23.857-21.307-51.953-52.869C149.656,391.617,128,417.274,128,448c0,35.346,28.654,64,64,64h128&#10;&#9;&#9;&#9;c35.346,0,64-28.654,64-64C384,417.274,362.344,391.617,333.466,385.431z" fill="#ffffffff" data-original-color="#000000ff" stroke="none"/>
	</g>
</g><g>
	<g>
		<path d="M256,0c-84.829,0-153.6,68.771-153.6,153.6c0,119.466,153.6,256,153.6,256s153.6-136.534,153.6-256&#10;&#9;&#9;&#9;C409.6,68.771,340.829,0,256,0z M256,204.8c-28.276,0-51.2-22.925-51.2-51.2c0-28.278,22.924-51.2,51.2-51.2&#10;&#9;&#9;&#9;s51.2,22.922,51.2,51.2C307.2,181.875,284.277,204.8,256,204.8z" fill="#ffffffff" data-original-color="#000000ff" stroke="none"/>
	</g>
</g><g>
</g><g>
</g><g>
</g><g>
</g><g>
</g><g>
</g><g>
</g><g>
</g><g>
</g><g>
</g><g>
</g><g>
</g><g>
</g><g>
</g><g>
</g></g></svg>