<svg viewBox="0 0 48 47.23" xmlns="http://www.w3.org/2000/svg" width="300" height="300"
    version="1.1">
    <g transform="matrix(1,0,0,1,0,0)">
        <g id="Layer_2" data-name="Layer 2">
            <g id="Icon">
                <path d="m0 18.23v27.64l19.59-13.77z" fill="#000000"
                    data-original-color="#000000ff" stroke="none" />
                <path d="m24 35.23-2.68-1.9-19.77 13.9h44.9l-19.77-13.9z" fill="#000000"
                    data-original-color="#000000ff" stroke="none" />
                <path d="m28.41 32.1 19.59 13.77v-27.64z" fill="#000000"
                    data-original-color="#000000ff" stroke="none" />
                <path d="m8 11.33-7.13 5.05 7.13 5.05z" fill="#000000"
                    data-original-color="#000000ff" stroke="none" />
                <path d="m24 0-5.65 4h11.3z" fill="#000000" data-original-color="#000000ff"
                    stroke="none" />
                <path d="m40 11.33v10.1l7.13-5.05z" fill="#000000" data-original-color="#000000ff"
                    stroke="none" />
                <path
                    d="m24.94 15.73a2.13 2.13 0 0 0 -2.17 2.37 2.19 2.19 0 1 0 4.35 0 2.13 2.13 0 0 0 -2.18-2.37z"
                    fill="#000000" data-original-color="#000000ff" stroke="none" />
                <path
                    d="m38 22.85v-16.85h-28v16.85l14 9.92zm-21.36-4.85c0-4.56 3.37-8 8.46-8 4.9 0 8.26 3.23 8.26 7.62 0 3.12-1.43 4.9-3.58 4.9a2.33 2.33 0 0 1 -2.4-1.52 3.27 3.27 0 0 1 -3 1.52 4.11 4.11 0 0 1 -4-4.42 4.09 4.09 0 0 1 4-4.4 3.33 3.33 0 0 1 2.69 1.16v-1h2.37v5.65c0 .84.37 1.12.84 1.12.81 0 1.29-.92 1.29-3 0-3.55-2.62-6-6.49-6a6.12 6.12 0 0 0 -6.48 6.37 6.07 6.07 0 0 0 6.4 6.32 7.81 7.81 0 0 0 3.44-.77l.56 1.61a9.5 9.5 0 0 1 -4 .84c-5 0-8.36-3.42-8.36-8z"
                    fill="#000000" data-original-color="#000000ff" stroke="none" />
            </g>
        </g>
    </g>
</svg>